<?xml version="1.0" encoding="UTF-8"?>
<svg version="1.1" xmlns="http://www.w3.org/2000/svg" width="3200" height="3200">
<path d="M0 0 C4.12469701 0.00767591 8.24936076 -0.00219545 12.37405293 -0.00973 C19.58867814 -0.02052148 26.80323591 -0.02026333 34.01786415 -0.01258852 C44.74654867 -0.00120671 55.47517665 -0.00706008 66.20386083 -0.01621344 C85.36904737 -0.03198671 104.53420385 -0.03065104 123.69939323 -0.0219767 C140.47140756 -0.01442302 157.24341088 -0.0124632 174.01542656 -0.01604463 C175.12897251 -0.01627379 176.24251845 -0.01650294 177.38980822 -0.01673904 C181.91032176 -0.01767309 186.43083529 -0.0186283 190.95134882 -0.01961833 C233.33684051 -0.02879048 275.72231309 -0.02048265 318.10780182 -0.00432764 C355.74532475 0.00990863 393.38281723 0.00863472 431.02033989 -0.00571062 C473.32947913 -0.02178271 515.63860148 -0.02813993 557.94774334 -0.01887383 C562.45990809 -0.01791171 566.97207284 -0.01697319 571.4842376 -0.01604463 C573.1506906 -0.01568879 573.1506906 -0.01568879 574.85080931 -0.01532575 C591.61019483 -0.01191672 608.36956813 -0.01589784 625.12895195 -0.02348329 C644.18961316 -0.03206743 663.25023967 -0.02990299 682.31089656 -0.01364106 C692.97179744 -0.00484499 703.63262316 -0.00423868 714.29352206 -0.01557958 C721.4221217 -0.02232506 728.55066129 -0.01808703 735.67925206 -0.00506528 C739.73574063 0.00204414 743.79208028 0.00456773 747.84856395 -0.00628323 C767.14150211 -0.05411401 785.87046956 0.06569632 804.31233208 6.51040266 C805.61738701 6.95827132 805.61738701 6.95827132 806.94880669 7.41518782 C839.09601678 18.88271737 864.07780237 42.95668663 878.74690239 73.45864485 C887.98363747 93.79575616 890.05651498 114.1960184 890.00430767 136.18627833 C890.0067004 138.28599588 890.00996744 140.38571258 890.01402427 142.48542757 C890.02262859 148.25025056 890.01882431 154.01500828 890.01296855 159.77983224 C890.00879394 166.05359839 890.01620265 172.32735272 890.02212106 178.60111598 C890.03088349 189.59523472 890.03226361 200.58933136 890.02861778 211.58345221 C890.02473823 223.37667378 890.02520176 235.16988328 890.03092758 246.96310423 C890.03128641 247.70877432 890.03164523 248.45444441 890.03201493 249.22271057 C890.03348989 252.25986219 890.03499429 255.2970138 890.0365364 258.33416539 C890.05216317 289.14739475 890.05485124 319.96061581 890.05238034 350.77384841 C890.05204188 355.03001769 890.05171979 359.28618696 890.05141465 363.54235624 C890.05132309 364.81046537 890.05132309 364.81046537 890.05122967 366.10419288 C890.04995727 384.84745342 890.0525601 403.59071282 890.05594072 422.33397303 C890.05671147 426.61495413 890.0574562 430.89593524 890.05820573 435.17691635 C890.05850743 436.89507786 890.05880931 438.61323937 890.05911138 440.33140088 C890.05926106 441.18306929 890.05941074 442.0347377 890.05956495 442.91221424 C890.05986848 444.63491885 890.06017317 446.35762345 890.060479 448.08032806 C890.06915132 496.95732227 890.07379645 545.83431548 890.06953137 594.71131037 C890.06945331 595.61623116 890.06937525 596.52115196 890.06929483 597.45349459 C890.06842205 607.54411051 890.06749278 617.63472643 890.0665442 627.72534234 C890.06645869 628.63636007 890.06637318 629.5473778 890.06628508 630.48600213 C890.06557432 638.05537189 890.06557432 638.05537189 890.06524285 641.53867316 C890.05970737 699.80733207 890.06724867 758.07597513 890.08601372 816.34463118 C890.09073602 831.02634647 890.09541657 845.70806178 890.09985058 860.38977717 C890.1001239 861.29381608 890.10039722 862.197855 890.10067883 863.12928904 C890.1090515 890.99702829 890.11372992 918.86476623 890.11455815 946.73250674 C890.11458451 947.60756862 890.11461088 948.48263051 890.11463804 949.38420942 C890.11517885 968.59482769 890.11480631 987.80544586 890.11359833 1007.0160641 C890.11317271 1013.89010947 890.11280759 1020.76415484 890.11246889 1027.63820021 C890.11238359 1029.34825136 890.11229465 1031.05830251 890.11220207 1032.76835366 C890.11075404 1060.00253565 890.11787473 1087.23670687 890.12920603 1114.47088627 C890.14086171 1142.66728239 890.14141357 1170.86365929 890.12936261 1199.0600555 C890.12811081 1202.09026891 890.12690732 1205.12048234 890.12574188 1208.15069578 C890.12545159 1208.89434685 890.1251613 1209.63799792 890.1248622 1210.40418386 C890.12054306 1222.16163676 890.12625672 1233.91906228 890.13618208 1245.67651088 C890.14573804 1257.24805439 890.14426834 1268.81954203 890.13197585 1280.39108579 C890.12571056 1286.57658025 890.1241417 1292.76197579 890.13583919 1298.94746459 C890.14639691 1304.58215952 890.14297855 1310.21667196 890.12873466 1315.8513572 C890.12602147 1317.86973658 890.12825389 1319.88813076 890.1362418 1321.90649616 C890.27278115 1358.95590824 879.20196144 1391.59179476 853.88655083 1419.24477766 C834.12429325 1439.04316369 805.01770036 1454.52101972 776.70163654 1454.65705515 C775.40231274 1454.65323036 774.10298894 1454.64940557 772.76429169 1454.64546488 C771.34745563 1454.64846485 769.93062121 1454.65233685 768.51378964 1454.65699722 C764.62169818 1454.66726374 760.7296978 1454.66512693 756.8375987 1454.66094186 C752.60259878 1454.658574 748.36762112 1454.66774685 744.13262968 1454.67542605 C736.71036408 1454.68726978 729.28812307 1454.69163895 721.86584847 1454.69110487 C710.82819026 1454.69031155 699.79056308 1454.70086252 688.75291317 1454.71352044 C666.74198139 1454.7382607 644.73105715 1454.74704334 622.72011338 1454.75205693 C621.01017771 1454.75244869 621.01017771 1454.75244869 619.26569788 1454.75284837 C618.1234452 1454.75310864 616.98119251 1454.75336892 615.80432611 1454.75363708 C603.14590528 1454.75671945 590.48748654 1454.76322426 577.82906716 1454.76984976 C539.59327858 1454.78949833 501.35749226 1454.80590209 463.12169831 1454.80872629 C461.8986633 1454.80882036 460.6756283 1454.80891442 459.41553164 1454.80901133 C454.45911912 1454.80938981 449.5027066 1454.8097538 444.54629409 1454.81011431 C440.81580024 1454.81038603 437.08530639 1454.8106627 433.35481255 1454.81093977 C432.1221132 1454.81102779 430.88941385 1454.81111582 429.61935997 1454.81120651 C390.89573837 1454.81411132 352.1721667 1454.83620122 313.44856255 1454.87246321 C269.94262618 1454.91320248 226.43672383 1454.93688496 182.93076734 1454.93718581 C178.29009644 1454.93728263 173.64942555 1454.93744935 169.00875466 1454.93766592 C167.29478107 1454.93773209 167.29478107 1454.93773209 165.54618175 1454.9377996 C147.16853554 1454.93891884 128.7909394 1454.95631874 110.4133093 1454.97948524 C91.93623745 1455.00234466 73.45923315 1455.0065421 54.98215234 1454.99193594 C44.01040401 1454.98379356 33.03886868 1454.9894433 22.06714624 1455.01511679 C14.72975649 1455.03089797 7.39251752 1455.0283615 0.0551313 1455.01121006 C-4.12002688 1455.00196024 -8.29477561 1455.00037553 -12.46990144 1455.02117614 C-46.271779 1455.17871555 -75.29734454 1448.275946 -101.25016792 1425.38540266 C-102.1654023 1424.61454329 -103.08063667 1423.84368391 -104.02360542 1423.04946516 C-127.48585486 1402.74180388 -141.50068508 1372.05517747 -144.25016792 1341.38540266 C-144.60776469 1334.44780846 -144.5211005 1327.49495402 -144.50464351 1320.55049895 C-144.50703623 1318.44706792 -144.51030326 1316.34363774 -144.51436011 1314.24020926 C-144.52296459 1308.46508255 -144.51916009 1302.69002099 -144.51330439 1296.91489331 C-144.50912985 1290.62997252 -144.51653845 1284.34506352 -144.5224569 1278.0601456 C-144.53121938 1267.04647176 -144.53259944 1256.03281999 -144.52895363 1245.01914404 C-144.5250741 1233.20496008 -144.52553757 1221.39078817 -144.53126343 1209.57660483 C-144.53180166 1208.45611915 -144.53180166 1208.45611915 -144.53235078 1207.31299739 C-144.53382573 1204.27047083 -144.53533013 1201.22794428 -144.53687224 1198.18541775 C-144.55249896 1167.31780597 -144.5551871 1136.45020246 -144.55271618 1105.58258743 C-144.55237773 1101.31894473 -144.55205563 1097.05530204 -144.5517505 1092.79165934 C-144.55168945 1091.94477103 -144.55162841 1091.09788273 -144.55156552 1090.22533114 C-144.55029313 1071.4495351 -144.5528959 1052.6737402 -144.55627656 1033.8979445 C-144.55704731 1029.60959339 -144.55779204 1025.32124227 -144.55854158 1021.03289115 C-144.55884327 1019.31177502 -144.55914515 1017.59065889 -144.55944722 1015.86954275 C-144.55967174 1014.58984429 -144.55967174 1014.58984429 -144.5599008 1013.28429334 C-144.56020433 1011.55862911 -144.56050901 1009.83296488 -144.56081484 1008.10730066 C-144.56948711 959.1466603 -144.57413231 910.18602095 -144.56986721 861.22537993 C-144.56975012 859.86568149 -144.56975012 859.86568149 -144.56963067 858.47851439 C-144.56875789 848.37065569 -144.56782862 838.26279699 -144.56688004 828.15493829 C-144.56679453 827.24236241 -144.56670902 826.32978653 -144.56662092 825.38955683 C-144.56591016 817.8071917 -144.56591016 817.8071917 -144.56557869 814.31798105 C-144.56004296 755.94705677 -144.56758525 697.5761483 -144.58634956 639.20522688 C-144.59107185 624.49721783 -144.59575239 609.78920877 -144.60018642 595.08119963 C-144.60045974 594.17554678 -144.60073307 593.26989393 -144.60101467 592.33679705 C-144.60938698 564.42055592 -144.61406573 536.5043161 -144.61489399 508.58807371 C-144.61492035 507.71152643 -144.61494672 506.83497914 -144.61497389 505.93186981 C-144.61551469 486.6889249 -144.61514217 467.44598009 -144.61393417 448.20303521 C-144.61350855 441.31748847 -144.61314343 434.43194173 -144.61280473 427.54639499 C-144.61271943 425.8334779 -144.61263049 424.12056082 -144.61253791 422.40764373 C-144.61108974 395.12504861 -144.6182115 367.84246424 -144.62954187 340.5598717 C-144.64119597 312.31487772 -144.64175113 284.06990293 -144.62969845 255.82490887 C-144.62844665 252.78987418 -144.62724316 249.75483947 -144.62607773 246.71980475 C-144.62578743 245.97496807 -144.62549714 245.2301314 -144.62519805 244.46272391 C-144.62087788 232.6836352 -144.62659435 220.90457381 -144.63651792 209.12548939 C-144.64607078 197.53439062 -144.64460814 185.94334763 -144.6323117 174.35224862 C-144.62604376 168.15558668 -144.62448432 161.95902351 -144.63617503 155.7623672 C-144.64672444 150.11870977 -144.64332471 144.47523467 -144.6290705 138.83158695 C-144.62635491 136.80884172 -144.62859719 134.78608174 -144.63657765 132.76335043 C-144.69558892 116.70275138 -143.46659902 101.10768565 -138.12516792 85.82290266 C-137.82658882 84.95286604 -137.52800972 84.08282942 -137.22038276 83.18642805 C-126.14669538 52.1432855 -102.52970693 26.24668994 -72.81266792 12.07290266 C-49.17265004 1.23109213 -25.60008784 -0.06847935 0 0 Z " fill="#FFFFFF" transform="translate(1889.2501679211855,1453.6145973373204)"/>
<path d="M0 0 C1.38374101 -0.00239627 2.76748072 -0.00566556 4.15121788 -0.0097166 C7.92810847 -0.01827212 11.70489868 -0.01453724 15.48179062 -0.00866088 C19.60057924 -0.00446843 23.71935027 -0.01190501 27.83813453 -0.01781338 C35.04858497 -0.02655676 42.25900701 -0.02789413 49.46946144 -0.02431011 C60.19201323 -0.01899449 70.9145376 -0.02510707 81.6370864 -0.03339304 C101.90336012 -0.04862384 122.16962134 -0.05033906 142.43589959 -0.04787002 C158.08711132 -0.0460365 173.73831896 -0.0477982 189.38953018 -0.05209446 C191.63909778 -0.05269686 193.88866539 -0.05329806 196.13823299 -0.05389806 C199.52822852 -0.05480533 202.91822404 -0.055714 206.30821956 -0.05663041 C237.82206213 -0.06505861 269.33590316 -0.06939656 300.8497467 -0.06522369 C302.03747106 -0.06506732 303.22519541 -0.06491094 304.44891141 -0.06474983 C310.46859869 -0.06394406 316.48828596 -0.06309829 322.50797322 -0.06223653 C324.30122641 -0.06197989 324.30122641 -0.06197989 326.13070692 -0.06171808 C328.54830182 -0.06137142 330.96589672 -0.06102289 333.38349162 -0.06067249 C371.00022169 -0.05531544 408.61692832 -0.0632458 446.23365402 -0.08170605 C488.50906892 -0.10242829 530.78446929 -0.11314834 573.05988955 -0.10913056 C577.56874641 -0.10873522 582.07760326 -0.10837367 586.58646011 -0.10803318 C588.25171739 -0.10789708 588.25171739 -0.10789708 589.95061623 -0.10775824 C606.69964408 -0.10659294 623.44865725 -0.11323542 640.19768143 -0.1238451 C659.24928775 -0.13590113 678.30086177 -0.13745138 697.35246858 -0.12505493 C708.00890751 -0.11843109 718.66526918 -0.12004648 729.32170191 -0.13364345 C736.44746557 -0.14190065 743.57317146 -0.13917389 750.69893045 -0.12766818 C754.75387284 -0.12142439 758.80866469 -0.1197781 762.86359826 -0.13153151 C782.15457328 -0.18367668 800.87796839 -0.06463519 819.31812668 6.37947559 C820.62318161 6.82734425 820.62318161 6.82734425 821.95460129 7.28426075 C854.10181138 18.75179031 879.08359697 42.82575956 893.75269699 73.32771778 C902.99242895 93.6714275 905.06227454 114.07665178 905.01010227 136.07376194 C905.01249499 138.17548754 905.01576202 140.27721229 905.01981887 142.37893534 C905.02842327 148.14932688 905.02461888 153.91965322 905.01876315 159.69004574 C905.01458858 165.96983352 905.02199722 172.24960949 905.02791566 178.52939439 C905.03667811 189.53405585 905.03805821 200.53869523 905.03441238 211.5433588 C905.03053285 223.34786742 905.03099634 235.15236399 905.03672218 246.95687199 C905.03708101 247.7032525 905.03743983 248.44963301 905.03780953 249.21863111 C905.03928449 252.2586737 905.04078889 255.29871626 905.042331 258.33875881 C905.05795769 289.18112036 905.06064586 320.02347362 905.05817494 350.86583842 C905.05783648 355.12598889 905.05751439 359.38613936 905.05720925 363.64628983 C905.05711769 364.91558191 905.05711769 364.91558191 905.05702427 366.21051626 C905.05575188 384.97096082 905.05835466 403.73140424 905.06173532 422.49184845 C905.06250606 426.77669727 905.0632508 431.06154609 905.06400033 435.34639491 C905.06430203 437.0661055 905.06460391 438.78581609 905.06490598 440.50552668 C905.06505566 441.3579623 905.06520534 442.21039792 905.06535955 443.08866492 C905.06566308 444.81291999 905.06596777 446.53717505 905.0662736 448.26143012 C905.07494587 497.18206916 905.07959107 546.10270719 905.07532597 595.0233469 C905.07524791 595.92907133 905.07516985 596.83479576 905.07508943 597.76796639 C905.07421664 607.86755939 905.07328738 617.96715238 905.0723388 628.06674537 C905.07225329 628.97857494 905.07216778 629.89040451 905.07207968 630.82986527 C905.07136892 638.40602812 905.07136892 638.40602812 905.07103745 641.89238653 C905.06550172 700.21556307 905.073044 758.53872379 905.09180832 816.86189747 C905.0965306 831.55787496 905.10121115 846.25385247 905.10564518 860.94983006 C905.1059185 861.85474215 905.10619182 862.75965425 905.10647343 863.69198792 C905.11484574 891.58541264 905.11952448 919.47883604 905.12035275 947.372262 C905.12037911 948.24809336 905.12040548 949.12392471 905.12043264 950.02629641 C905.12097345 969.25352783 905.12060093 988.48075914 905.11939293 1007.70799053 C905.11896731 1014.58791525 905.11860218 1021.46783997 905.11826349 1028.34776469 C905.11817819 1030.05928307 905.11808925 1031.77080145 905.11799667 1033.48231983 C905.1165485 1060.74259233 905.12367025 1088.00285407 905.13500063 1115.26312398 C905.14665475 1143.48502223 905.14720987 1171.70690127 905.13515721 1199.9287996 C905.1339054 1202.96135803 905.13270192 1205.99391648 905.13153648 1209.02647495 C905.13124619 1209.77070388 905.1309559 1210.51493281 905.1306568 1211.28171414 C905.12633665 1223.05115039 905.13205308 1234.8205593 905.14197668 1246.58999127 C905.15152959 1258.17161607 905.15006684 1269.75318504 905.13777045 1281.33481008 C905.13150256 1287.52639685 905.12994298 1293.71788476 905.14163379 1299.90946588 C905.15218332 1305.54851822 905.14878332 1311.18738809 905.13452926 1316.82643071 C905.1318137 1318.84750889 905.13405584 1320.86860183 905.1420364 1322.88966608 C905.22419833 1345.23228783 901.92176203 1366.12611018 891.75562668 1386.25447559 C891.25418137 1387.27928028 890.75273605 1388.30408497 890.23609543 1389.35994434 C885.9353519 1397.79020743 880.74038432 1404.98185872 874.75562668 1412.25447559 C874.08531418 1413.07947559 873.41500168 1413.90447559 872.72437668 1414.75447559 C855.59116495 1434.97728287 827.98683317 1450.16952965 801.75562668 1454.25447559 C797.0900365 1454.53830868 792.4348047 1454.52651891 787.76170635 1454.5117445 C786.34396261 1454.51444068 784.92622031 1454.5180101 783.5084807 1454.52236897 C779.61388712 1454.5318067 775.71938733 1454.5288329 771.82478921 1454.52381342 C767.58712495 1454.52054301 763.34948056 1454.5288325 759.11182266 1454.53563178 C751.68496467 1454.54593575 744.25813275 1454.54877488 736.83126831 1454.54671955 C725.7869454 1454.54367059 714.74265136 1454.55199127 703.69833406 1454.5624688 C682.824882 1454.58181758 661.95143976 1454.58743736 641.0779798 1454.58858292 C624.95800022 1454.58950182 608.83802451 1454.59361751 592.71804619 1454.59998417 C588.07878703 1454.60177925 583.43952787 1454.60355887 578.80026871 1454.60533392 C577.6469472 1454.60577602 576.49362568 1454.60621812 575.30535504 1454.60667361 C542.86092252 1454.61898337 510.41649134 1454.62687461 477.97205639 1454.62598705 C476.74864573 1454.6259559 475.52523508 1454.62592474 474.26475137 1454.62589264 C468.06393341 1454.62572642 461.86311544 1454.62552834 455.66229748 1454.62532322 C454.43078365 1454.62528333 453.19926982 1454.62524344 451.9304374 1454.62520234 C449.44001524 1454.62512147 446.94959308 1454.62503787 444.45917093 1454.62495156 C405.7154452 1454.62372615 366.97175449 1454.63873683 328.22803879 1454.66609669 C284.70345419 1454.69681999 241.17889259 1454.71402901 197.65429646 1454.71217024 C193.01283681 1454.71202098 188.37137717 1454.71192357 183.72991753 1454.71186161 C182.5870662 1454.7118383 181.44421487 1454.71181499 180.26673169 1454.71179098 C161.87734391 1454.71172944 143.48798653 1454.72449983 125.09860779 1454.74172614 C106.61487247 1454.75868264 88.13118161 1454.76065632 69.64744281 1454.7475075 C58.66842814 1454.74011834 47.68954856 1454.74377533 36.71054821 1454.76339218 C29.37214154 1454.77539553 22.03383266 1454.77279711 14.69543046 1454.75845118 C10.51727491 1454.75069121 6.33938069 1454.74912755 2.16124361 1454.76536588 C-1.64863071 1454.78004279 -5.45802882 1454.77591319 -9.26788279 1454.75751815 C-11.26521522 1454.75251492 -13.2625685 1454.76690508 -15.25984737 1454.78236371 C-28.21049482 1454.68154425 -40.40892047 1451.46504181 -52.36937332 1446.56697559 C-53.62693436 1446.05650684 -53.62693436 1446.05650684 -54.90990067 1445.53572559 C-66.60525568 1440.61513255 -76.62805023 1433.49261389 -86.24437332 1425.25447559 C-87.13769363 1424.50681934 -88.03101395 1423.75916309 -88.95140457 1422.98885059 C-112.57618642 1402.50302577 -126.24655788 1372.10024666 -129.24437332 1341.25447559 C-129.37558505 1338.30664133 -129.38010381 1335.36444968 -129.37202382 1332.41403973 C-129.3736746 1331.55398887 -129.37532538 1330.69393801 -129.37702618 1329.80782501 C-129.38134175 1326.92448627 -129.37855281 1324.04119886 -129.37580109 1321.15785885 C-129.37745116 1319.06142157 -129.37953764 1316.96498461 -129.38202119 1314.86854815 C-129.38759194 1309.08488225 -129.38691467 1303.30123113 -129.3852436 1297.5175634 C-129.38451324 1291.23380048 -129.38953371 1284.95004176 -129.39381862 1278.66628063 C-129.40052094 1267.64533605 -129.40349639 1256.62439623 -129.40395355 1245.60344982 C-129.40445594 1233.77707298 -129.40710288 1221.95069956 -129.41236115 1210.12432384 C-129.41285635 1209.00409639 -129.41285635 1209.00409639 -129.41336155 1207.86123809 C-129.41471155 1204.81957025 -129.41607422 1201.77790243 -129.41745366 1198.73623461 C-129.43375666 1162.72403068 -129.44014237 1126.71182741 -129.44490152 1090.69962042 C-129.44728475 1072.76714946 -129.45098823 1054.83467888 -129.45493862 1036.90220821 C-129.46760327 979.37977439 -129.47838705 921.85734059 -129.48177908 864.33490541 C-129.48194132 861.58559563 -129.48210688 858.83628586 -129.48227347 856.08697609 C-129.48260726 850.57319775 -129.48293774 845.05941941 -129.48326802 839.54564106 C-129.48365492 833.09035504 -129.48404453 826.63506901 -129.48443909 820.17978299 C-129.48455151 818.33222816 -129.48466292 816.48467333 -129.48477334 814.63711849 C-129.48832259 755.30313243 -129.50340014 695.96915847 -129.52671108 636.63517702 C-129.54345448 594.00047393 -129.55892851 551.36577312 -129.56344604 508.7310667 C-129.56353953 507.8541167 -129.56363302 506.9771667 -129.56372934 506.07364245 C-129.56574847 486.821561 -129.56690444 467.56947959 -129.56725792 448.31739804 C-129.56739409 441.42840591 -129.56760309 434.53941379 -129.56785117 427.65042167 C-129.56791273 425.93662104 -129.56797105 424.22282042 -129.56802612 422.5090198 C-129.56894563 395.20951646 -129.57891017 367.91002578 -129.59348361 340.6105266 C-129.60810593 313.10939506 -129.61313751 285.60827902 -129.60506407 258.10714428 C-129.60394874 254.30430886 -129.60293806 250.50147342 -129.60198975 246.69863796 C-129.60179978 245.95319933 -129.60160981 245.2077607 -129.60141409 244.43973301 C-129.5986837 232.65098486 -129.60601193 220.86226546 -129.61756311 209.07352356 C-129.62871983 197.47275539 -129.62886926 185.87203638 -129.61819293 174.27126655 C-129.61279391 168.06931269 -129.61211347 161.86745848 -129.62470165 155.66551282 C-129.63607083 150.01698232 -129.6334829 144.3686322 -129.62003458 138.72010784 C-129.61761053 136.69558319 -129.62014918 134.6710445 -129.62843105 132.64653534 C-129.69003677 116.51929907 -128.43995051 100.90796542 -123.05687332 85.56697559 C-122.75571609 84.69105762 -122.45455887 83.81513966 -122.14427567 82.91267872 C-111.40627935 52.75584059 -88.61584714 27.28534646 -59.91624832 13.10408497 C-40.6200904 4.10236424 -21.32762588 -0.0750388 0 0 Z " fill="#FFFFFF" transform="translate(550.2443733215332,1453.745524406433)"/>
<path d="M0 0 C0.91991226 -0.00705963 1.83982452 -0.01411926 2.78761292 -0.02139282 C41.36262591 -0.25019441 41.36262591 -0.25019441 59.0234375 3.203125 C60.02117187 3.39116699 61.01890625 3.57920898 62.046875 3.77294922 C84.54322251 8.13682404 106.38162582 15.24921503 127.0859375 25.078125 C127.99867432 25.5107666 128.91141113 25.9434082 129.85180664 26.38916016 C146.1683494 34.45321188 161.38953198 44.59133592 176.39013672 54.84179688 C181.05099131 58.02566269 185.72487821 61.19029365 190.3984375 64.35546875 C191.84138184 65.33324783 191.84138184 65.33324783 193.31347656 66.33078003 C203.48896863 73.21475847 213.75217265 79.96326618 224.0234375 86.703125 C239.49437139 96.8600832 254.87539444 107.14037909 270.20068359 117.515625 C283.74235505 126.68001597 297.35553354 135.7281985 311.0234375 144.703125 C326.49350233 154.8614269 341.87537391 165.14036519 357.20068359 175.515625 C370.74235505 184.68001597 384.35553354 193.7281985 398.0234375 202.703125 C413.49350233 212.8614269 428.87537391 223.14036519 444.20068359 233.515625 C457.74235505 242.68001597 471.35553354 251.7281985 485.0234375 260.703125 C500.49350233 270.8614269 515.87537391 281.14036519 531.20068359 291.515625 C544.74235505 300.68001597 558.35553354 309.7281985 572.0234375 318.703125 C587.49350233 328.8614269 602.87537391 339.14036519 618.20068359 349.515625 C631.74235505 358.68001597 645.35553354 367.7281985 659.0234375 376.703125 C674.49350233 386.8614269 689.87537391 397.14036519 705.20068359 407.515625 C718.74235505 416.68001597 732.35553354 425.7281985 746.0234375 434.703125 C761.49350233 444.8614269 776.87537391 455.14036519 792.20068359 465.515625 C805.74235505 474.68001597 819.35553354 483.7281985 833.0234375 492.703125 C848.49350233 502.8614269 863.87537391 513.14036519 879.20068359 523.515625 C892.74235505 532.68001597 906.35553354 541.7281985 920.0234375 550.703125 C935.49350233 560.8614269 950.87537391 571.14036519 966.20068359 581.515625 C979.74235505 590.68001597 993.35553354 599.7281985 1007.0234375 608.703125 C1022.49350233 618.8614269 1037.87537391 629.14036519 1053.20068359 639.515625 C1066.74235685 648.68001718 1080.3555966 657.72809981 1094.0234375 666.703125 C1110.80823712 677.72537236 1127.49805434 688.88067505 1144.12695312 700.13671875 C1144.95570953 700.69763214 1145.78446594 701.25854553 1146.63833618 701.8364563 C1148.27493729 702.94425316 1149.911314 704.05238161 1151.54745483 705.16085815 C1155.94086721 708.13347838 1160.34609634 711.08707993 1164.76611328 714.02001953 C1165.71797012 714.65190689 1166.66982697 715.28379425 1167.65052795 715.93482971 C1169.47838976 717.14674117 1171.30760951 718.35660791 1173.13841248 719.56407166 C1185.81870715 727.96969887 1195.1361876 738.19593418 1199.3359375 753.265625 C1202.22172619 769.79332385 1200.13383286 784.22793019 1190.7734375 798.453125 C1182.04887464 810.12946715 1169.5796981 818.09568095 1155.0234375 820.203125 C1149.77325801 820.48998837 1144.53017045 820.47210832 1139.2743842 820.454974 C1137.6621768 820.45708414 1136.04997034 820.46007046 1134.43776599 820.46384934 C1129.99572825 820.47171284 1125.553777 820.4671087 1121.11174042 820.46051353 C1116.26558369 820.45552938 1111.41944048 820.46216706 1106.57328585 820.46731719 C1098.04312079 820.4747709 1089.51298067 820.47475466 1080.9828141 820.46992771 C1068.21277727 820.46273715 1055.44276205 820.46704302 1042.67272582 820.47360906 C1020.91069727 820.48445631 999.14867668 820.48577557 977.38664627 820.48191071 C955.32579261 820.47802129 933.26494535 820.47846781 911.20409203 820.4842205 C910.50861216 820.48439976 909.81313229 820.48457901 909.09657727 820.48476369 C902.72303879 820.48640652 896.34950031 820.48809211 889.97596185 820.48982932 C873.99275061 820.49417913 858.00953925 820.49781443 842.02632773 820.50096166 C841.2938704 820.50110611 840.56141307 820.50125056 839.80676007 820.50139939 C803.68822746 820.50845232 767.56969544 820.507809 731.45116234 820.5062809 C730.66817339 820.50624783 729.88518444 820.50621475 729.07846856 820.50618068 C725.90854017 820.50604637 722.73861178 820.50591122 719.5686834 820.5057753 C710.81246353 820.50540014 702.05624366 820.50504247 693.30002379 820.50470757 C692.50948161 820.50467686 691.71893943 820.50464614 690.90444142 820.5046145 C655.08242818 820.50324087 619.2604156 820.50576998 583.43840254 820.50923364 C578.64728596 820.50969688 573.85616939 820.51014874 569.06505281 820.51059776 C567.87706544 820.51070918 567.87706544 820.51070918 566.66507831 820.51082285 C565.06396903 820.51097301 563.46285974 820.51112312 561.86175045 820.51127321 C557.85268623 820.51164928 553.84362202 820.51202675 549.83455781 820.5124043 C549.03967979 820.5124791 548.24480178 820.5125539 547.42583655 820.51263097 C543.40627908 820.51300945 539.38672161 820.51338937 535.36716414 820.51377192 C497.85350423 820.51734017 460.33984429 820.52020446 422.82618427 820.52236462 C421.60010542 820.52243547 421.60010542 820.52243547 420.3492573 820.52250776 C368.25852727 820.52550282 316.16779776 820.52537721 264.07706771 820.52294384 C261.51539687 820.52282425 258.95372603 820.52270587 256.39205518 820.52258775 C237.53545022 820.52171631 218.67884527 820.52078571 199.82224032 820.51983712 C198.10251278 820.51975073 196.38278524 820.51966436 194.6630577 820.519578 C192.94262486 820.51949156 191.22219203 820.51940512 189.50175919 820.51931867 C188.22396303 820.51925449 188.22396303 820.51925449 186.9203528 820.519189 C182.61606865 820.51897261 178.3117845 820.51875517 174.00750036 820.51853577 C92.7044824 820.51439687 11.40146704 820.51332056 -69.90155029 820.5256958 C-70.75758354 820.52582608 -71.61361678 820.52595637 -72.49559043 820.5260906 C-98.38141562 820.53004249 -124.26724073 820.53440205 -150.15306583 820.53886175 C-178.45785499 820.54373776 -206.76264415 820.54857164 -235.06743336 820.5531435 C-235.91243409 820.55328027 -236.75743482 820.55341704 -237.62804163 820.55355796 C-290.54167106 820.56211147 -343.45529974 820.56701622 -396.36892986 820.56785107 C-397.18606608 820.56786434 -398.00320229 820.56787761 -398.84510021 820.56789128 C-434.73030988 820.56846659 -470.6155195 820.56818188 -506.50072915 820.56697257 C-520.13813626 820.56651335 -533.77554337 820.56612111 -547.41295048 820.56576181 C-550.60544711 820.56567755 -553.79794373 820.56558828 -556.99044036 820.56549499 C-593.61035186 820.5644392 -630.23026146 820.56552147 -666.85017228 820.57316995 C-668.03505921 820.57341691 -668.03505921 820.57341691 -669.24388326 820.57366887 C-681.95107284 820.57632721 -694.65826239 820.57914629 -707.36545194 820.58197289 C-743.43279635 820.58998575 -779.50013797 820.59633766 -815.56748331 820.59190404 C-816.29911821 820.59181464 -817.03075312 820.59172524 -817.78455878 820.59163313 C-833.74537885 820.58964975 -849.70619867 820.58681446 -865.66701844 820.58314261 C-872.03235022 820.58169037 -878.39768203 820.58034615 -884.76301384 820.57903481 C-885.45736807 820.57888874 -886.1517223 820.57874267 -886.86711757 820.57859218 C-908.89902072 820.57400818 -930.93090901 820.5786332 -952.96281005 820.5885694 C-975.25166537 820.59858083 -997.54049708 820.59825407 -1019.82935137 820.58526877 C-1032.51504625 820.57819886 -1045.20067637 820.57938893 -1057.88636668 820.59261716 C-1066.30207361 820.60057761 -1074.71773133 820.59773815 -1083.13343371 820.58596752 C-1087.91004376 820.57959283 -1092.6865255 820.57793038 -1097.46312861 820.58953473 C-1101.79855328 820.59997987 -1106.13374017 820.59657903 -1110.46915167 820.58222633 C-1112.02242005 820.57948499 -1113.57570765 820.58172642 -1115.12895814 820.58967146 C-1133.13545105 820.67549557 -1147.11101961 816.72776088 -1160.39453125 804.109375 C-1169.73445525 793.59666175 -1174.95811131 780.28138304 -1174.9765625 766.203125 C-1174.05285718 751.64217021 -1169.18088248 737.61989621 -1158.17895508 727.55932617 C-1150.26461248 720.94537682 -1141.50883516 715.48556052 -1132.87988281 709.86621094 C-1127.947367 706.6530389 -1123.02641106 703.42226507 -1118.10546875 700.19140625 C-1117.09332306 699.52718658 -1116.08117737 698.86296692 -1115.0383606 698.17861938 C-1104.79037084 691.44289512 -1094.62906284 684.58157025 -1084.4765625 677.703125 C-1069.13313429 667.31348082 -1053.70551045 657.06149308 -1038.21630859 646.890625 C-1024.56903912 637.92607637 -1010.99758463 628.85687917 -997.4765625 619.703125 C-982.13214092 609.3149264 -966.7055334 599.06150816 -951.21630859 588.890625 C-937.56903912 579.92607637 -923.99758463 570.85687917 -910.4765625 561.703125 C-895.13214092 551.3149264 -879.7055334 541.06150816 -864.21630859 530.890625 C-850.56903912 521.92607637 -836.99758463 512.85687917 -823.4765625 503.703125 C-808.13214092 493.3149264 -792.7055334 483.06150816 -777.21630859 472.890625 C-763.56903912 463.92607637 -749.99758463 454.85687917 -736.4765625 445.703125 C-721.13214092 435.3149264 -705.7055334 425.06150816 -690.21630859 414.890625 C-676.56903912 405.92607637 -662.99758463 396.85687917 -649.4765625 387.703125 C-634.13214092 377.3149264 -618.7055334 367.06150816 -603.21630859 356.890625 C-589.56903912 347.92607637 -575.99758463 338.85687917 -562.4765625 329.703125 C-547.13214092 319.3149264 -531.7055334 309.06150816 -516.21630859 298.890625 C-502.56903912 289.92607637 -488.99758463 280.85687917 -475.4765625 271.703125 C-460.13214092 261.3149264 -444.7055334 251.06150816 -429.21630859 240.890625 C-415.56903912 231.92607637 -401.99758463 222.85687917 -388.4765625 213.703125 C-373.13214092 203.3149264 -357.7055334 193.06150816 -342.21630859 182.890625 C-328.56903912 173.92607637 -314.99758463 164.85687917 -301.4765625 155.703125 C-286.13214092 145.3149264 -270.7055334 135.06150816 -255.21630859 124.890625 C-241.56903632 115.92607453 -227.99769458 106.85672023 -214.4765625 97.703125 C-197.86340251 86.45704448 -181.15921848 75.35712274 -164.38916016 64.34643555 C-162.58751016 63.16333236 -160.78591407 61.98014709 -158.984375 60.796875 C-158.11728912 60.22737625 -157.25020325 59.6578775 -156.35684204 59.07112122 C-151.16476665 55.65625804 -145.99304304 52.21339329 -140.84375 48.734375 C-99.23453134 20.62206645 -51.02861207 0.26218516 0 0 Z " fill="#FFFFFF" transform="translate(1586.9765625,343.796875)"/>
</svg>
